<?xml version="1.0" encoding="utf-8"?>
<!-- Generator: Adobe Illustrator 16.0.0, SVG Export Plug-In . SVG Version: 6.00 Build 0)  -->
<!DOCTYPE svg PUBLIC "-//W3C//DTD SVG 1.0//EN" "http://www.w3.org/TR/2001/REC-SVG-20010904/DTD/svg10.dtd">
<svg version="1.0" id="Capa_1" xmlns="http://www.w3.org/2000/svg" xmlns:xlink="http://www.w3.org/1999/xlink" x="0px" y="0px"
	 width="1199.53px" height="1199.529px" viewBox="0 0 1199.53 1199.529" enable-background="new 0 0 1199.53 1199.529"
	 xml:space="preserve">
<g>
	<path d="M515.721,1153.747c-17.425,0-33.682-8.077-45.776-22.741L114.554,700.107c-24.287-29.451-24.287-77.369,0-106.819
		l355.391-430.899c12.095-14.664,28.352-22.74,45.776-22.74c17.426,0,33.683,8.076,45.776,22.74l355.391,430.899
		c24.287,29.45,24.287,77.368,0,106.819l-355.391,430.898C549.403,1145.67,533.146,1153.747,515.721,1153.747z M515.721,153.648
		c-13.168,0-25.59,6.268-34.976,17.648L125.354,602.196c-20.236,24.537-20.236,64.465,0,89.003l355.391,430.898
		c9.386,11.381,21.808,17.649,34.976,17.649c13.169,0,25.59-6.269,34.976-17.649l355.391-430.898
		c20.236-24.538,20.236-64.466,0-89.003L550.696,171.297C541.311,159.916,528.89,153.648,515.721,153.648z"/>
</g>
</svg>
